Coordinates
version=1
nRows=60
nColumns=12
inDegrees=yes

Units are S.I. units (second, meters, Newtons, ...)
Angles are in degrees

endheader
time	SC_y	SC_z	SC_x	AC_y	AC_z	AC_x	GH_y	GH_z	GH_yy	EL_x	PS_y
       0.0              -34.41          29.27          42.88          62.77         -4.291          10.18          33.02          11.45          10.16          103.7          68.41
   0.01412               -34.4          29.27          42.88          62.77         -4.294          10.18          33.01          11.46          10.13          103.7          68.41
   0.02824               -34.4          29.27          42.88          62.77         -4.296          10.17           33.0          11.47          10.11          103.7          68.42
   0.04235               -34.4          29.27          42.88          62.77         -4.299          10.17          32.98          11.49          10.08          103.7          68.43
   0.05647               -34.4          29.28          42.88          62.77         -4.301          10.17          32.96           11.5          10.05          103.6          68.43
   0.07059              -34.39          29.28          42.88          62.77         -4.304          10.17          32.95          11.51          10.01          103.6          68.44
   0.08471              -34.39          29.28          42.88          62.77         -4.307          10.16          32.93          11.52           9.98          103.6          68.45
   0.09883              -34.39          29.28          42.88          62.77         -4.311          10.16          32.91          11.54          9.943          103.6          68.46
    0.1129              -34.38          29.28          42.88          62.77         -4.314          10.15          32.89          11.55          9.904          103.6          68.47
    0.1271              -34.38          29.29          42.88          62.77         -4.318          10.15          32.87          11.57          9.862          103.6          68.48
    0.1412              -34.37          29.29          42.88          62.77         -4.322          10.15          32.84          11.59          9.817          103.6          68.49
    0.1553              -34.37          29.29          42.88          62.77         -4.326          10.14          32.81          11.61          9.768          103.6           68.5
    0.1694              -34.37          29.29          42.88          62.77         -4.331          10.14          32.79          11.63          9.715          103.6          68.51
    0.1835              -34.36           29.3          42.88          62.77         -4.336          10.13          32.76          11.65          9.659          103.6          68.52
    0.1977              -34.35           29.3          42.88          62.77         -4.342          10.12          32.72          11.68          9.597          103.6          68.54
    0.2118              -34.35           29.3          42.88          62.77         -4.348          10.12          32.69           11.7           9.53          103.6          68.55
    0.2259              -34.34          29.31          42.88          62.77         -4.354          10.11          32.65          11.73          9.458          103.6          68.57
      0.24              -34.33          29.31          42.88          62.77         -4.361           10.1          32.61          11.77          9.379          103.6          68.59
    0.2541              -34.33          29.32          42.88          62.77         -4.369          10.09          32.56           11.8          9.293          103.6          68.61
    0.2682              -34.32          29.32          42.88          62.77         -4.377          10.08          32.51          11.84          9.199          103.6          68.63
    0.2824              -34.31          29.33          42.88          62.77         -4.387          10.07          32.45          11.88          9.095          103.6          68.65
    0.2965               -34.3          29.33          42.88          62.77         -4.397          10.06          32.39          11.93          8.981          103.6          68.68
    0.3106              -34.28          29.34          42.88          62.77         -4.408          10.05          32.32          11.98          8.855          103.6          68.71
    0.3247              -34.27          29.35          42.88          62.78         -4.421          10.03          32.25          12.03          8.716          103.6          68.74
    0.3388              -34.26          29.36          42.88          62.78         -4.435          10.02          32.16          12.09          8.561          103.6          68.77
     0.353              -34.24          29.37          42.88          62.78          -4.45           10.0          32.07          12.16          8.388          103.6          68.81
    0.3671              -34.22          29.38          42.88          62.78         -4.468          9.982          31.97          12.24          8.194          103.6          68.86
    0.3812               -34.2          29.39          42.88          62.78         -4.487           9.96          31.85          12.33          7.976          103.6          68.91
    0.3953              -34.18           29.4          42.88          62.78         -4.509          9.935          31.72          12.43           7.73          103.6          68.96
    0.4094              -34.15          29.42          42.88          62.78         -4.534          9.907          31.57          12.54           7.45          103.6          69.03
    0.4235              -34.12          29.44          42.88          62.78         -4.563          9.875           31.4          12.67          7.131          103.6           69.1
    0.4377              -34.09          29.46          42.88          62.78         -4.596          9.838           31.2          12.82          6.765          103.6          69.18
    0.4518              -34.05          29.48          42.88          62.78         -4.634          9.796          30.97          12.99          6.342          103.6          69.28
    0.4659               -34.0          29.51          42.88          62.79         -4.678          9.746          30.71          13.18           5.85          103.6          69.39
      0.48              -33.95          29.54          42.88          62.79          -4.73          9.689           30.4          13.41          5.275          103.6          69.52
    0.4941              -33.89          29.57          42.88          62.79          -4.79           9.62          30.03          13.69          4.597          103.6          69.68
    0.5082              -33.81          29.62          42.88          62.79         -4.863          9.539           29.6          14.01          3.792          103.5          69.86
    0.5224              -33.72          29.67          42.88           62.8          -4.95          9.442          29.08           14.4          2.826          103.5          70.08
    0.5365              -33.61          29.73          42.88           62.8         -5.054          9.325          28.45          14.87          1.658          103.5          70.35
    0.5506              -33.48          29.81          42.88          62.81         -5.183          9.181          27.68          15.44         0.2306          103.5          70.67
    0.5647              -33.31          29.91          42.88          62.81         -5.341          9.004          26.73          16.15         -1.531          103.4          71.07
    0.5788              -33.11          30.03          42.87          62.82         -5.538          8.783          25.55          17.03         -3.727          103.4          71.57
     0.593              -32.85          30.18          42.87          62.83         -5.786          8.505          24.06          18.14         -6.494          103.4           72.2
    0.6071              -32.52          30.37          42.87          62.84         -6.102          8.151          22.17          19.56         -10.01          103.3          73.01
    0.6212               -32.1          30.62          42.87          62.86         -6.506          7.699          19.75          21.37         -14.51          103.2          74.03
    0.6353              -31.56          30.93          42.87          62.88         -7.025          7.118          16.64          23.69         -20.29          103.1          75.35
    0.6494              -30.87          31.34          42.86          62.91         -7.688          6.376          12.67          26.65         -27.67          103.0          77.03
    0.6635               -30.0          31.84          42.86          62.94         -8.521          5.443          7.671          30.38         -36.95          102.8          79.15
    0.6777              -28.95          32.46          42.86          62.98         -9.536          4.306          1.585          34.92         -48.26          102.6          81.72
    0.6918              -27.72          33.18          42.85          63.03         -10.71          2.988         -5.469          40.19         -61.36          102.4          84.71
    0.7059               -26.4          33.95          42.84          63.08         -11.99          1.561         -13.11          45.89         -75.56          102.1          87.95
      0.72              -25.07          34.73          42.84          63.13         -13.26         0.1335         -20.75          51.59         -89.75          101.9          91.18
    0.7341              -23.84          35.45          42.83          63.18         -14.44         -1.184          -27.8          56.86         -102.9          101.7          94.17
    0.7483              -22.79          36.06          42.83          63.22         -15.45         -2.322         -33.89           61.4         -114.2          101.5          96.75
    0.7624              -21.92          36.57          42.83          63.25         -16.29         -3.255         -38.88          65.13         -123.4          101.3          98.86
    0.7765              -21.23          36.97          42.82          63.28         -16.95         -3.997         -42.85           68.1         -130.8          101.2          100.5
    0.7906              -20.69          37.29          42.82           63.3         -17.47         -4.578         -45.96          70.42         -136.6          101.1          101.9
    0.8047              -20.27          37.54          42.82          63.32         -17.87          -5.03         -48.38          72.23         -141.1          101.0          102.9
    0.8188              -19.94          37.73          42.82          63.33         -18.19         -5.384         -50.28          73.64         -144.6          100.9          103.7
     0.833              -19.68          37.88          42.82          63.34         -18.44         -5.662         -51.77          74.75         -147.4          100.9          104.3
